<?xml version="1.0" encoding="UTF-8" standalone="no"?>
<!DOCTYPE svg PUBLIC "-//W3C//DTD SVG 1.1//EN" "http://www.w3.org/Graphics/SVG/1.1/DTD/svg11.dtd">
<svg version="1.1" xmlns="http://www.w3.org/2000/svg" xmlns:xlink="http://www.w3.org/1999/xlink" preserveAspectRatio="xMidYMid meet" viewBox="0 0 89 99" width="89" height="99"><defs><path d="M46.26 99L46.26 81.32L71.18 67.57L86.26 76.3L46.26 99ZM89 26.35L74.37 34.84L74.37 65.35L89 73.82L89 26.35ZM42.74 99L42.74 81.32L17.81 67.57L2.74 76.3L42.74 99ZM0 26.35L14.63 34.84L14.63 65.35L0 73.82L0 26.35ZM42.74 0L42.74 17.08L16.45 31.59L16.24 31.71L1.72 23.28L42.74 0ZM46.26 0L46.26 17.08L72.55 31.58L72.75 31.69L87.28 23.28L46.26 0Z" id="h7Cp7MiX31"></path><path d="M18.15 63.73L18.15 36.86L42.74 51.1L42.74 77.3L18.15 63.73ZM70.85 63.74L70.85 36.86L46.26 51.1L46.26 77.3L70.85 63.74ZM44.5 20.15L69.19 33.76L44.5 48.05L19.81 33.76L44.5 20.15Z" id="aanjCRxTO"></path></defs><g><g><g><use xlink:href="#h7Cp7MiX31" opacity="1" fill="#d1d2d6" fill-opacity="1"></use><g><use xlink:href="#h7Cp7MiX31" opacity="1" fill-opacity="0" stroke="#000000" stroke-width="1" stroke-opacity="0"></use></g></g><g><use xlink:href="#aanjCRxTO" opacity="1" fill="#d1d2d6" fill-opacity="1"></use><g><use xlink:href="#aanjCRxTO" opacity="1" fill-opacity="0" stroke="#000000" stroke-width="1" stroke-opacity="0"></use></g></g></g></g></svg>