<?xml version="1.0" encoding="UTF-8" standalone="no"?>
<svg version="1.1" xmlns="http://www.w3.org/2000/svg" xmlns:xlink="http://www.w3.org/1999/xlink" preserveAspectRatio="xMidYMid meet" viewBox="0 0 92 92" width="92" height="92"><defs><path d="M92 0L92 92L0 92L0 0L92 0Z" id="d123XCF2Cd"></path><path d="M33.06 80.65C37.29 78.09 39.63 76.67 40.1 76.38C41.46 78.79 42.7 80.83 45.66 80.83C48.5 80.83 50.29 79.72 50.29 75.4C50.29 73.44 50.29 63.64 50.29 46L58.94 46C58.94 63.71 58.94 73.55 58.94 75.52C58.94 84.47 53.69 88.55 46.03 88.55C39.11 88.55 35.1 84.97 33.06 80.64" id="b1ZSflKJFH"></path><path d="M59.56 80.21C63.79 77.77 66.14 76.41 66.6 76.14C68.46 79.16 70.87 81.39 75.13 81.39C78.71 81.39 80.99 79.6 80.99 77.13C80.99 74.16 78.65 73.11 74.69 71.38C74.48 71.29 72.75 70.55 72.53 70.46C66.3 67.8 62.16 64.47 62.16 57.43C62.16 50.94 67.1 46 74.82 46C80.31 46 84.27 47.91 87.11 52.92C86.43 53.35 81.05 56.81 80.38 57.24C78.89 54.58 77.29 53.53 74.82 53.53C72.29 53.53 70.68 55.14 70.68 57.24C70.68 59.83 72.29 60.88 75.99 62.49C76.21 62.58 77.94 63.32 78.15 63.42C85.5 66.57 89.64 69.78 89.64 77C89.64 84.78 83.53 89.04 75.31 89.04C67.28 89.04 62.1 85.22 59.56 80.21" id="e5dSzsVUs"></path></defs><g><g><g><use xlink:href="#d123XCF2Cd" opacity="1" fill="#d1d2d6" fill-opacity="1"></use><g><use xlink:href="#d123XCF2Cd" opacity="1" fill-opacity="0" stroke="#000000" stroke-width="1" stroke-opacity="0"></use></g></g><g><use xlink:href="#b1ZSflKJFH" opacity="1" fill="#f5f6f7" fill-opacity="1"></use><g><use xlink:href="#b1ZSflKJFH" opacity="1" fill-opacity="0" stroke="#000000" stroke-width="1" stroke-opacity="0"></use></g></g><g><use xlink:href="#e5dSzsVUs" opacity="1" fill="#f5f6f7" fill-opacity="1"></use><g><use xlink:href="#e5dSzsVUs" opacity="1" fill-opacity="0" stroke="#000000" stroke-width="1" stroke-opacity="0"></use></g></g></g></g></svg>